<?xml version="1.0" standalone="no"?>
<!DOCTYPE svg PUBLIC "-//W3C//DTD SVG 20010904//EN"
 "http://www.w3.org/TR/2001/REC-SVG-20010904/DTD/svg10.dtd">
<svg version="1.0" xmlns="http://www.w3.org/2000/svg"
 width="273.000000pt" height="220.000000pt" viewBox="0 0 273.000000 220.000000"
 preserveAspectRatio="xMidYMid meet">

<g transform="translate(0.000000,220.000000) scale(0.100000,-0.100000)"
fill="#000000" stroke="none">
<path d="M11 1748 c1 -227 4 -403 6 -390 2 12 9 22 15 22 13 0 2 -64 -12 -68
-6 -2 -10 -225 -10 -613 l0 -609 329 0 c254 0 330 3 334 13 4 9 6 9 6 0 2 -21
111 -17 127 5 13 16 14 16 8 0 -6 -17 6 -18 160 -18 l166 0 0 1035 0 1035
-126 0 -126 0 6 -23 c5 -22 -10 -53 -42 -86 -19 -20 -25 -8 -24 54 l0 55 -228
0 c-173 0 -230 -3 -233 -12 -4 -10 -6 -10 -6 0 -1 6 -12 12 -26 12 -18 0 -26
-7 -31 -25 -7 -27 -24 -34 -24 -10 0 8 5 15 10 15 6 0 10 5 10 10 0 6 -55 10
-145 10 l-145 0 1 -412z m362 331 c6 -4 5 -13 -2 -25 -8 -14 -11 -15 -11 -4 0
8 -3 26 -5 40 -3 14 -2 18 1 10 4 -8 11 -18 17 -21z m-100 -4 c-3 -9 -8 -14
-10 -11 -3 3 -2 9 2 15 9 16 15 13 8 -4z m657 -45 c0 -17 -11 -57 -25 -90 -14
-33 -25 -66 -25 -75 0 -8 -6 -15 -14 -15 -8 0 -17 -6 -20 -12 -3 -7 -4 6 -2
29 2 23 11 50 20 58 20 21 21 55 1 55 -10 0 -15 -10 -15 -27 0 -16 -5 -35 -10
-43 -7 -11 -9 -2 -7 30 2 38 7 46 25 48 12 2 22 10 22 18 0 21 23 54 37 54 8
0 13 -13 13 -30z m-568 -112 c-9 -20 -11 -18 -11 22 0 40 2 42 11 23 8 -17 8
-29 0 -45z m-45 -10 c-3 -7 -5 -2 -5 12 0 14 2 19 5 13 2 -7 2 -19 0 -25z m50
-63 c-1 -25 -5 -45 -9 -45 -10 0 -10 17 -2 59 9 44 13 39 11 -14z m580 -32
c-3 -10 -5 -4 -5 12 0 17 2 24 5 18 2 -7 2 -21 0 -30z m-39 -121 c-23 -47 -34
-61 -37 -47 -2 11 -8 23 -15 27 -6 5 -2 8 11 8 18 0 23 7 29 45 3 25 10 45 15
45 5 0 9 8 10 18 0 12 3 11 10 -7 7 -18 2 -37 -23 -89z m-451 -114 c-3 -8 -6
-5 -6 6 -1 11 2 17 5 13 3 -3 4 -12 1 -19z m20 0 c-3 -8 -6 -5 -6 6 -1 11 2
17 5 13 3 -3 4 -12 1 -19z m397 0 c9 -36 7 -48 -9 -48 -10 0 -15 11 -15 35 0
39 14 47 24 13z m86 -15 c0 -5 -5 -15 -10 -23 -8 -12 -10 -11 -10 8 0 12 5 22
10 22 6 0 10 -3 10 -7z m-363 -215 c-3 -7 -5 -2 -5 12 0 14 2 19 5 13 2 -7 2
-19 0 -25z m-30 -110 c-3 -8 -6 -5 -6 6 -1 11 2 17 5 13 3 -3 4 -12 1 -19z
m350 0 c-3 -8 -6 -5 -6 6 -1 11 2 17 5 13 3 -3 4 -12 1 -19z m-885 -25 c-3
-16 -7 -22 -10 -15 -4 13 4 42 11 42 2 0 2 -12 -1 -27z m451 12 c-3 -9 -8 -14
-10 -11 -3 3 -2 9 2 15 9 16 15 13 8 -4z m187 -90 c0 -11 -5 -27 -10 -35 -7
-11 -10 -1 -10 35 0 36 3 46 10 35 5 -8 10 -24 10 -35z m-229 -2 c-12 -20 -14
-14 -5 12 4 9 9 14 11 11 3 -2 0 -13 -6 -23z m146 -5 c-3 -7 -5 -2 -5 12 0 14
2 19 5 13 2 -7 2 -19 0 -25z m76 -80 c4 -12 4 -24 2 -27 -3 -2 -5 1 -5 7 0 7
-4 12 -10 12 -5 0 -10 -7 -10 -15 0 -8 -5 -15 -10 -15 -6 0 -8 -11 -4 -25 3
-14 2 -25 -3 -25 -12 0 -9 39 8 78 16 38 24 40 32 10z m-7 -180 c-9 -13 -13
-32 -10 -47 4 -20 3 -23 -5 -11 -9 12 -11 11 -11 -7 0 -13 -5 -23 -11 -23 -12
0 -5 60 9 70 4 3 14 18 22 33 8 16 16 24 18 18 2 -6 -3 -20 -12 -33z m-39
-130 c-3 -7 -5 -2 -5 12 0 14 2 19 5 13 2 -7 2 -19 0 -25z m61 -60 c-3 -45 -6
-53 -23 -54 -18 -1 -20 4 -17 37 2 22 8 39 13 39 5 0 9 7 9 15 0 8 5 15 11 15
6 0 9 -21 7 -52z m-28 -118 c0 -5 -4 -10 -10 -10 -5 0 -10 5 -10 10 0 6 5 10
10 10 6 0 10 -4 10 -10z m-411 -122 c0 -41 -3 -56 -8 -43 -7 19 -3 105 5 105
2 0 4 -28 3 -62z m450 -48 c0 -10 -3 -8 -9 5 -12 27 -12 43 0 25 5 -8 9 -22 9
-30z m45 5 c-4 -8 -8 -15 -10 -15 -2 0 -4 7 -4 15 0 8 4 15 10 15 5 0 7 -7 4
-15z m-45 -75 c0 -10 -3 -8 -9 5 -12 27 -12 43 0 25 5 -8 9 -22 9 -30z m48
-42 c-3 -7 -5 -2 -5 12 0 14 2 19 5 13 2 -7 2 -19 0 -25z m184 -145 c-12 -20
-14 -14 -5 12 4 9 9 14 11 11 3 -2 0 -13 -6 -23z m-174 -15 c-3 -8 -6 -5 -6 6
-1 11 2 17 5 13 3 -3 4 -12 1 -19z"/>
<path d="M897 2033 c-3 -5 -2 -24 1 -43 4 -29 6 -32 13 -15 11 28 11 65 0 65
-6 0 -12 -3 -14 -7z"/>
<path d="M661 664 c0 -11 3 -14 6 -6 3 7 2 16 -1 19 -3 4 -6 -2 -5 -13z"/>
<path d="M1227 2045 c-9 -21 -9 -348 -1 -369 5 -13 22 -16 83 -15 155 1 221
61 221 199 -1 84 -25 139 -76 171 -31 19 -55 24 -130 27 -79 4 -92 2 -97 -13z
m155 -35 c101 -29 133 -187 53 -267 -30 -30 -38 -33 -94 -33 l-61 0 0 155 0
155 33 0 c17 0 49 -5 69 -10z"/>
<path d="M1225 1258 c-3 -13 -4 -102 -3 -198 3 -172 3 -175 25 -178 22 -3 23
-3 25 165 l3 168 82 -145 c105 -187 109 -192 141 -188 l27 3 3 198 2 197 -25
0 -25 0 0 -162 0 -163 -81 145 c-45 80 -88 153 -97 163 -23 26 -70 23 -77 -5z"/>
<path d="M1257 318 c-37 -101 -67 -191 -67 -201 0 -13 6 -17 22 -15 16 2 26
16 38 53 l17 50 85 3 85 3 19 -53 c16 -46 23 -53 48 -56 21 -3 27 0 24 10 -3
7 -36 97 -73 201 l-68 187 -32 0 -32 0 -66 -182z m132 33 c17 -47 31 -88 31
-93 0 -4 -31 -8 -69 -8 l-70 0 24 68 c33 95 45 125 49 121 3 -2 18 -42 35 -88z"/>
</g>
</svg>
